HIERARCHY
ROOT pelvis
{
	OFFSET 0.000000 0.000000 0.938642
	CHANNELS 6 Xposition Yposition Zposition Xrotation Yrotation Zrotation
	JOINT spine
	{
		OFFSET 0.000000 0.000000 0.000000
		CHANNELS 6 Xposition Yposition Zposition Xrotation Yrotation Zrotation
		JOINT spine.001
		{
			OFFSET 0.000000 -0.015985 0.305005
			CHANNELS 3 Xrotation Yrotation Zrotation
			JOINT neck
			{
				OFFSET 0.000000 0.037222 0.303147
				CHANNELS 6 Xposition Yposition Zposition Xrotation Yrotation Zrotation
				JOINT face
				{
					OFFSET 0.000000 0.003790 0.217149
					CHANNELS 6 Xposition Yposition Zposition Xrotation Yrotation Zrotation
					End Site
					{
						OFFSET 0.000000 -0.029044 -0.009351
					}
				}
			}
			JOINT shoulder.L
			{
				OFFSET 0.000000 0.037222 0.303147
				CHANNELS 6 Xposition Yposition Zposition Yrotation Xrotation Zrotation
				JOINT upper_arm.L
				{
					OFFSET 0.175021 0.000000 0.000000
					CHANNELS 6 Xposition Yposition Zposition Xrotation Yrotation Zrotation
					JOINT forearm.L
					{
						OFFSET 0.288264 0.000138 0.001143
						CHANNELS 6 Xposition Yposition Zposition Xrotation Yrotation Zrotation
						End Site
						{
							OFFSET 0.258671 -0.004389 -0.001571
						}
					}
				}
			}
			JOINT shoulder.R
			{
				OFFSET 0.000000 0.037222 0.303147
				CHANNELS 6 Xposition Yposition Zposition Yrotation Xrotation Zrotation
				JOINT upper_arm.R
				{
					OFFSET -0.175021 0.000000 0.000000
					CHANNELS 6 Xposition Yposition Zposition Xrotation Yrotation Zrotation
					JOINT forearm.R
					{
						OFFSET -0.284397 0.000138 0.001143
						CHANNELS 6 Xposition Yposition Zposition Xrotation Yrotation Zrotation
						End Site
						{
							OFFSET -0.262525 -0.004456 -0.001572
						}
					}
				}
			}
		}
	}
	JOINT pelvis.L
	{
		OFFSET 0.000000 0.000000 0.000000
		CHANNELS 6 Xposition Yposition Zposition Yrotation Xrotation Zrotation
		End Site
		{
			OFFSET 0.114097 0.000000 0.000000
		}
	}
	JOINT pelvis.R
	{
		OFFSET 0.000000 0.000000 0.000000
		CHANNELS 6 Xposition Yposition Zposition Yrotation Xrotation Zrotation
		End Site
		{
			OFFSET -0.114097 0.000000 0.000000
		}
	}
	JOINT thigh.L
	{
		OFFSET 0.114097 0.000000 0.000000
		CHANNELS 6 Xposition Yposition Zposition Xrotation Yrotation Zrotation
		JOINT shin.L
		{
			OFFSET 0.022827 0.000000 -0.435571
			CHANNELS 6 Xposition Yposition Zposition Xrotation Yrotation Zrotation
			JOINT foot.L
			{
				OFFSET 0.021939 0.000000 -0.418615
				CHANNELS 3 Xrotation Yrotation Zrotation
				End Site
				{
					OFFSET 0.019111 -0.194854 -0.081822
				}
			}
			JOINT heel.02.L
			{
				OFFSET 0.021939 0.000000 -0.418615
				CHANNELS 3 Xrotation Yrotation Zrotation
				End Site
				{
					OFFSET 0.101182 0.041096 -0.078095
				}
			}
		}
	}
	JOINT thigh.R
	{
		OFFSET -0.114097 0.000000 0.000000
		CHANNELS 6 Xposition Yposition Zposition Xrotation Yrotation Zrotation
		JOINT shin.R
		{
			OFFSET -0.022196 0.000000 -0.423533
			CHANNELS 6 Xposition Yposition Zposition Xrotation Yrotation Zrotation
			JOINT foot.R
			{
				OFFSET -0.022464 0.000000 -0.428639
				CHANNELS 3 Xrotation Yrotation Zrotation
				End Site
				{
					OFFSET -0.019747 -0.201338 -0.084545
				}
			}
			JOINT heel.02.R
			{
				OFFSET -0.022464 0.000000 -0.428639
				CHANNELS 3 Xrotation Yrotation Zrotation
				End Site
				{
					OFFSET -0.099475 0.041096 -0.080204
				}
			}
		}
	}
}
MOTION
Frames: 7
Frame Time: 0.041667
0.031978 -0.034946 0.922789 -0.000000 0.000000 -2.344048 -0.000000 0.000000 0.000000 -10.275074 -0.235041 -0.033609 9.995824 0.243256 1.981567 -0.000000 0.037222 0.303148 38.951507 5.128931 8.187249 -0.000000 0.003790 0.217149 -2.729770 -0.000001 0.000000 -0.000000 0.037222 0.303147 2.316166 0.005746 -0.284270 0.175021 0.000000 -0.000000 -15.875735 76.104119 20.107717 0.288264 0.000138 0.001143 37.377674 30.843632 -100.794966 0.000000 0.037222 0.303147 2.374351 0.006039 -0.291430 -0.175021 0.000000 0.000000 9.626713 -81.723275 11.162097 -0.284397 0.000138 0.001143 40.016217 -36.650303 94.385339 0.000000 0.000000 0.000000 1.203486 0.000000 0.000032 0.000000 0.000000 0.000000 1.203515 -0.000000 0.000000 0.114072 -0.000000 -0.002396 7.679434 4.061865 0.130577 0.022827 0.000000 -0.435571 -0.119399 -4.433472 -0.010858 -9.677910 -4.224415 6.142671 -18.691516 50.320094 40.100191 -0.114072 0.000000 0.002396 5.346210 -0.348633 -0.264151 -0.022196 0.000000 -0.423533 2.342935 4.156714 -0.207447 -5.796097 5.176116 -9.453904 -18.283310 -50.104058 -37.637672 
0.032007 -0.034872 0.922823 -0.000000 0.000000 -2.306258 -0.000000 -0.000000 -0.000000 -10.278309 -0.239426 -0.034242 9.995846 0.241949 1.970920 -0.000000 0.037222 0.303147 38.971345 5.146037 8.202332 0.000000 0.003790 0.217149 -2.739799 0.000000 -0.000005 0.000000 0.037222 0.303147 2.321538 0.005775 -0.285036 0.175021 -0.000000 -0.000000 -15.704608 76.153624 19.874843 0.288264 0.000138 0.001143 37.171932 30.751998 -100.642311 -0.000000 0.037222 0.303147 2.379645 0.006066 -0.292127 -0.175021 0.000000 -0.000000 11.337837 -81.540554 13.173829 -0.284397 0.000138 0.001143 39.914522 -36.630786 94.261064 -0.000000 -0.000000 -0.000000 1.213934 0.000000 0.000044 -0.000000 -0.000000 -0.000000 1.213904 -0.000000 0.000000 0.114071 0.000000 -0.002417 7.664943 4.055848 0.130735 0.022827 -0.000000 -0.435571 -0.110913 -4.425940 -0.010079 -9.684142 -4.208385 6.110410 -18.651531 50.292988 40.064196 -0.114071 -0.000000 0.002417 5.349510 -0.349052 -0.264295 -0.022196 -0.000000 -0.423533 2.338661 4.153192 -0.206998 -5.799818 5.192603 -9.485889 -18.294897 -50.115127 -37.657951 
0.032012 -0.034826 0.922829 -0.000000 0.000000 -2.279433 0.000000 -0.000000 -0.000000 -10.278291 -0.241585 -0.034551 9.995891 0.240030 1.955324 -0.000000 0.037222 0.303148 38.974545 5.167408 8.239639 -0.000000 0.003790 0.217149 -2.743165 -0.000002 -0.000002 0.000000 0.037222 0.303148 2.317357 0.005755 -0.284573 0.175021 -0.000000 -0.000000 -15.611985 76.186437 19.746816 0.288264 0.000138 0.001143 37.009004 30.665408 -100.548021 -0.000000 0.037222 0.303148 2.375504 0.006047 -0.291646 -0.175021 0.000000 0.000000 12.327974 -81.416640 14.347277 -0.284397 0.000138 0.001143 39.861452 -36.621302 94.194900 0.000000 -0.000000 0.000000 1.225430 0.000000 0.000047 0.000000 -0.000000 0.000000 1.225400 -0.000000 0.000000 0.114071 0.000000 -0.002440 7.657006 4.049606 0.131016 0.022827 -0.000000 -0.435571 -0.107652 -4.416106 -0.009773 -9.687176 -4.196985 6.087906 -18.618416 50.270360 40.033784 -0.114071 0.000000 0.002440 5.352777 -0.353346 -0.264256 -0.022196 0.000000 -0.423533 2.334334 4.155164 -0.206655 -5.802284 5.203204 -9.506410 -18.297086 -50.119371 -37.669477 
0.031994 -0.034824 0.922802 -0.000000 0.000000 -2.262339 0.000000 0.000000 0.000000 -10.279307 -0.241497 -0.034540 9.995931 0.238316 1.941324 -0.000000 0.037222 0.303148 38.973292 5.186102 8.279445 0.000000 0.003790 0.217149 -2.744295 0.000000 -0.000004 0.000000 0.037222 0.303147 2.304455 0.005690 -0.282914 0.175021 -0.000000 -0.000000 -15.523519 76.209741 19.627447 0.288264 0.000138 0.001143 36.869867 30.584525 -100.480682 -0.000000 0.037222 0.303147 2.362601 0.005980 -0.290049 -0.175021 -0.000000 -0.000000 12.832776 -81.334302 14.952085 -0.284397 0.000138 0.001143 39.853659 -36.631411 94.165646 0.000000 0.000000 0.000000 1.236567 0.000001 -0.000061 0.000000 0.000000 0.000000 1.236567 -0.000000 0.000000 0.114070 -0.000000 -0.002462 7.655277 4.042499 0.131465 0.022827 -0.000000 -0.435571 -0.107357 -4.404343 -0.009736 -9.689134 -4.189339 6.072869 -18.596245 50.254794 40.011856 -0.114070 0.000000 0.002462 5.358659 -0.360161 -0.264229 -0.022196 0.000000 -0.423533 2.327147 4.160902 -0.206134 -5.804658 5.209316 -9.517835 -18.295147 -50.120444 -37.676427 
0.031978 -0.034867 0.922755 -0.000000 0.000000 -2.260640 -0.000000 -0.000000 -0.000000 -10.283949 -0.241918 -0.034611 9.995924 0.238085 1.939421 -0.000000 0.037222 0.303147 38.969433 5.198851 8.306128 -0.000000 0.003790 0.217149 -2.740418 -0.000001 -0.000000 0.000000 0.037222 0.303147 2.290420 0.005623 -0.281249 0.175021 0.000000 0.000000 -15.392661 76.242280 19.451629 0.288264 0.000138 0.001143 36.708538 30.515994 -100.352336 0.000000 0.037222 0.303147 2.348605 0.005911 -0.288339 -0.175021 -0.000000 -0.000000 13.130045 -81.273459 15.312220 -0.284397 0.000138 0.001143 39.902874 -36.680954 94.157826 -0.000000 0.000000 -0.000000 1.245309 0.000000 -0.000024 -0.000000 0.000000 -0.000000 1.245309 -0.000000 0.000000 0.114070 0.000000 -0.002480 7.661228 4.039260 0.131784 0.022827 0.000000 -0.435571 -0.112145 -4.395927 -0.010161 -9.689311 -4.187478 6.069308 -18.590083 50.250262 40.004940 -0.114070 0.000000 0.002480 5.365730 -0.365194 -0.264343 -0.022196 0.000000 -0.423533 2.317510 4.166700 -0.205397 -5.809903 5.209748 -9.516511 -18.288146 -50.117701 -37.678131 
0.031976 -0.034939 0.922704 -0.000000 0.000000 -2.274713 -0.000000 0.000000 0.000000 -10.292454 -0.244481 -0.034996 9.995973 0.240008 1.955143 0.000000 0.037222 0.303147 38.955878 5.203219 8.320033 0.000000 0.003790 0.217149 -2.726097 0.000000 0.000005 0.000000 0.037222 0.303147 2.280233 0.005571 -0.279886 0.175021 -0.000000 0.000000 -15.261057 76.291396 19.269495 0.288264 0.000138 0.001143 36.516268 30.470218 -100.127506 0.000000 0.037222 0.303147 2.338419 0.005859 -0.287067 -0.175021 -0.000000 0.000000 13.328164 -81.226174 15.554316 -0.284397 0.000138 0.001143 39.998595 -36.764279 94.164669 -0.000000 -0.000000 0.000000 1.252614 0.000000 -0.000019 -0.000000 -0.000000 0.000000 1.252584 -0.000000 0.000000 0.114070 0.000000 -0.002494 7.674354 4.041798 0.131840 0.022827 0.000000 -0.435571 -0.123122 -4.392780 -0.011152 -9.687156 -4.191422 6.077442 -18.598620 50.256860 40.015824 -0.114070 0.000000 0.002494 5.372492 -0.366154 -0.264631 -0.022196 0.000000 -0.423533 2.306035 4.169951 -0.204443 -5.816605 5.204439 -9.502910 -18.272390 -50.109113 -37.673295 
0.031985 -0.035016 0.922662 -0.000000 0.000000 -2.292170 -0.000000 0.000000 0.000000 -10.303845 -0.248260 -0.035562 9.995814 0.242870 1.978416 0.000000 0.037222 0.303147 38.934786 5.201086 8.332469 0.000000 0.003791 0.217149 -2.705459 -0.000001 0.000002 0.000000 0.037222 0.303148 2.272604 0.005534 -0.278998 0.175021 0.000000 0.000000 -15.187286 76.337022 19.161404 0.288264 0.000138 0.001143 36.334615 30.444663 -99.878662 0.000000 0.037222 0.303148 2.330751 0.005820 -0.286143 -0.175021 0.000000 -0.000000 13.392208 -81.185869 15.639438 -0.284397 0.000138 0.001143 40.093449 -36.838065 94.186342 0.000000 0.000000 0.000000 1.261775 -0.000001 0.000063 0.000000 0.000000 0.000000 1.261805 -0.000000 0.000000 0.114069 0.000000 -0.002512 7.685841 4.044803 0.131835 0.022827 -0.000000 -0.435571 -0.129290 -4.388400 -0.011707 -9.686352 -4.196402 6.087082 -18.614755 50.268874 40.034621 -0.114069 0.000000 0.002513 5.379320 -0.365378 -0.265005 -0.022196 -0.000000 -0.423533 2.292761 4.171628 -0.203302 -5.818579 5.197219 -9.487401 -18.247566 -50.095087 -37.664013 
